**ABCDEFGHIJKLMNOPQRSTUVWXYZabcdefghijklmnopqrstuvwxyz**************************
**PARASOLID !"#$%&'()*+,-./:;<=>?@[\]^_`{|}~0123456789**************************
**PART1;
MC=AMD64;
MC_MODEL=Intel64 Family 6 Model 26 Stepping 5, GenuineIntel;
MC_ID=unknown;
OS=Windows_NT;
OS_RELEASE=unknown;
FRU=Parasolid Version 27.0, build 207,  1-23-2015;
APPL=SOLIDWORKS 2015-2015313;
SITE=;
USER=unknown;
FORMAT=text;
GUISE=transmit;
KEY=makeProjectedPlanarWire;
FILE=makeProjectedPlanarWire.x_t;
DATE=Sun Aug 07 20:41:36 2016;
**PART2;
SCH=SCH_2700207_26105;
USFLD_SIZE=0;
**PART3;
**END_OF_HEADER*****************************************************************
T51 : TRANSMIT FILE created by modeller version 270020723 SCH_2700207_26105_1300
6196 0 12 30 CCCCCCCCCCCCCDI5 owner1040 0 CCCCCCCCCA13 boundary_mesh1006 0 A16 i
ndex_map_offset0 0 1 dA9 index_map82 0 A17 node_id_index_map82 0 A20 schema_embe
dding_map82 0 A5 child12 0 A14 lowest_node_id0 0 1 dZ1 61 0 2 0 0 0 0 1e3 1e-8 0
 3 0 1 0 3 1 4 5 6 7 8 9 10 0 0 0 0 0 0 0 70 11 CI9 list_type0 0 1 uI10 notransm
it0 0 1 lCCCDCCDI12 finger_index0 0 1 dI12 finger_block1012 0 CZ2 0 4 T1 0 0 1 2
0 1 11 11 13 255 4 58 0 1 0 12 0 0 8 12 50 255 5 2 0 12 0 0 0 +-.042980000000073
7 -.0528565322792612 291.55 -1 0 -1373736144636262e-31 -1373736144636262e-31 0 1
 30 255 6 24 0 9 13 0 0 +-.0429800000000737 .00835 291.55 -1373736144636262e-31
 0 1 29 255 7 51 0 10 14 0 -.04298000000001685 .00835 .002666666666641505 19 8 C
CCCCCCA5 owner12 0 Z8 57 0 1 0 0 4 V0 16 255 9 23 0 ?15 0 16 6 0 0 1 18 255 10 4
9 0 17 0 18 7 ?1 17 255 17 0 0 0 0 10 19 20 0 15 +18 18 46 0 21 10 22 14 ?1 17 2
1 0 23 15 24 18 25 16 0 26 +18 22 43 0 24 18 27 28 ?1 29 14 48 0 18 28 7 -.04298
000000001685 .00835 -.03521666666665625 29 28 45 0 22 29 14 -.04298000000001685
 -.0068866666666667 -.03521666666665625 29 29 42 0 27 30 28 -.04298000000001685
 -.0068866666666667 .002666666666641505 18 27 40 0 19 22 31 29 ?1 29 30 39 0 31
 32 29 -.04298000000001685 -.0066666666666606 -.002666666666641505 18 31 37 0 33
 27 34 30 ?1 29 32 36 0 34 35 30 -.04298000000001685 -.0066666666666743 -.034833
3333333244 18 34 34 0 36 31 37 32 ?1 29 35 33 0 37 38 32 -.04298000000001685 -.0
02666666666641505 -.03483333333331855 18 37 31 0 39 34 40 35 ?1 29 38 30 0 40 41
 35 -.04298000000001685 -.00266666666663013 -.004333333333306655 18 40 28 0 42 3
7 43 38 ?1 29 41 27 0 43 0 38 -.04298000000003365 -.004333333333306655 -.0026666
66666641505 18 43 25 0 44 40 0 41 ?1 17 44 0 45 42 46 43 33 47 0 48 +15 255 45 5
 0 44 12 23 17 42 0 45 39 44 40 48 49 0 50 -17 46 0 45 44 36 31 51 52 0 0 +17 33
 0 0 0 0 31 44 47 0 46 -16 47 7 0 ?44 49 0 53 0 0 1 17 48 0 0 0 0 43 42 49 0 0 +
16 49 9 0 ?48 54 47 55 0 0 1 16 54 11 0 ?39 56 49 57 0 0 1 31 255 55 10 0 49 53
 57 0 +-.04298000000001685 -.0043333333333334 -.0043333333333334 1 0 0 0 0 -1 .0
016666666666667 30 53 8 0 47 0 55 0 +-.04298000000001685 -291.55 -.0026666666666
41505 0 1 0 30 57 12 0 54 55 58 0 +-.04298000000001685 -.002666666666641505 4e2
 0 2843808977011195e-32 -1 30 58 14 0 56 57 59 0 +-.04298000000001685 -291.55 -.
0348333333328128 0 -1 173472347597681e-29 16 56 13 0 ?36 52 54 58 0 0 1 30 59 16
 0 52 58 60 0 +-.04298000000001685 -.00666666666671745 4e2 0 -1078584544648804e-
31 1 16 52 15 0 ?46 20 56 59 0 0 1 30 60 18 0 20 59 61 0 +-.04298000000001685 -.
0528565322792612 .002666666666641505 0 1 0 16 20 17 0 ?17 62 52 60 0 0 1 30 61 2
0 0 62 60 13 0 +-.0429800000000737 -.0068866666666667 291.55 1373736144636262e-3
1 0 -1 16 62 19 0 ?24 16 20 61 0 0 1 30 13 22 0 16 61 6 0 +-.04298000000001685 -
.0528565322792612 -.03521666666665625 0 1 0 16 16 21 0 ?21 9 62 13 0 0 1 17 24 0
 23 21 19 22 63 62 0 25 +15 23 6 0 19 12 0 17 19 0 23 24 15 27 17 20 0 63 -17 63
 0 0 0 0 27 24 62 0 0 -17 25 0 0 0 0 22 21 16 0 0 -17 15 0 23 19 21 10 26 9 0 0
 +17 26 0 0 0 0 18 15 9 0 0 -14 255 12 1 64 ?0 0 45 4 5 -0 0 0 0 4 81 255 1 64 6
1 65 12 0 0 0 0 66 80 255 1 65 67 68 9000 1 1 1 1 1 1 1 1 0 FFFFTFTFFFFFFF1 82 2
55 1 66 2055406865 79 255 14 68 SWEntUnchanged17 36 0 45 46 39 34 69 56 0 51 +17
 39 0 45 36 42 37 50 54 0 69 +17 69 0 0 0 0 37 36 56 0 0 -17 51 0 0 0 0 34 46 52
 0 0 -17 50 0 0 0 0 40 39 54 0 0 -74 4 CI16 index_map_offset0 0 1 dCCZ20 11 1 0
 0 64 0 0 0 0 0 0 0 0 0 0 0 0 0 0 0 0 0 0 0 1 0 
