**ABCDEFGHIJKLMNOPQRSTUVWXYZabcdefghijklmnopqrstuvwxyz**************************
**PARASOLID !"#$%&'()*+,-./:;<=>?@[\]^_`{|}~0123456789**************************
**PART1;
MC=AMD64;
MC_MODEL=Intel64 Family 6 Model 26 Stepping 5, GenuineIntel;
MC_ID=unknown;
OS=Windows_NT;
OS_RELEASE=unknown;
FRU=Parasolid Version 27.0, build 207,  1-23-2015;
APPL=SOLIDWORKS 2015-2015313;
SITE=;
USER=unknown;
FORMAT=text;
GUISE=transmit;
KEY=makeProjectedPlanarWire;
FILE=makeProjectedPlanarWire.x_t;
DATE=Sat Aug 13 16:58:04 2016;
**PART2;
SCH=SCH_2700207_26105;
USFLD_SIZE=0;
**PART3;
**END_OF_HEADER*****************************************************************
T51 : TRANSMIT FILE created by modeller version 270020723 SCH_2700207_26105_1300
6196 0 12 30 CCCCCCCCCCCCCDI5 owner1040 0 CCCCCCCCCA13 boundary_mesh1006 0 A16 i
ndex_map_offset0 0 1 dA9 index_map82 0 A17 node_id_index_map82 0 A20 schema_embe
dding_map82 0 A5 child12 0 A14 lowest_node_id0 0 1 dZ1 146 0 2 0 0 0 0 1e3 1e-8
 0 3 0 1 0 3 1 4 5 6 7 8 9 10 0 0 0 0 0 0 0 70 11 CI9 list_type0 0 1 uI10 notran
smit0 0 1 lCCCDCCDI12 finger_index0 0 1 dI12 finger_block1012 0 CZ2 0 4 T1 0 0 1
 20 1 11 11 13 255 4 143 0 1 0 12 0 0 8 12 54 255 5 34 0 1 13 0 14 +.55377848204
992 -.010676550753989 .002089492134161155 0 0 -1 .0089296875 .0037703125 -1 0 0
 30 255 6 58 0 9 15 0 0 -.558291621145117 -.029805925753989 -.002500145175391485
 0 -1 0 29 255 7 136 0 10 16 0 .558291621145117 -.032605925753989 -.002500145175
391485 19 8 CCCCCCCA5 owner12 0 Z8 142 0 1 0 0 4 V0 16 255 9 57 0 ?17 0 18 6 0 0
 1 18 255 10 134 0 19 0 20 7 ?1 17 255 19 0 0 0 0 10 21 22 0 23 +18 20 131 0 24
 10 25 16 ?1 17 24 0 26 23 27 20 28 18 0 17 -18 25 128 0 27 20 29 30 ?1 29 16 13
3 0 20 30 7 .558291621145117 -.029805925753989 -.00250014517539149 29 30 130 0 2
5 31 16 .558291621145117 -.01317669592938048 -.019129375 29 31 127 0 29 32 30 .5
58291621145117 -.01317669592938048 -.0350043750000282 18 29 125 0 33 25 34 31 ?1
 29 32 124 0 34 35 31 .558291621145117 -.01963592575400665 -.0350043750000282 18
 34 122 0 36 29 37 32 ?1 29 35 121 0 37 38 32 .558291621145117 -.019635925754019
8 -.0246327517426721 18 37 119 0 39 34 40 35 ?1 29 38 118 0 40 41 35 .5582916211
45117 -.01903592575401975 -.0246327517380598 18 40 116 0 42 37 43 38 ?1 29 41 11
5 0 43 44 38 .558291621145117 -.0190359257540198 -.0219136384347962 18 43 113 0
 45 40 46 41 ?1 29 44 112 0 46 47 41 .558291621145117 -.0196359257540635 -.02191
36384495561 18 46 110 0 48 43 49 44 ?1 29 47 109 0 49 50 44 .558291621145117 -.0
196359257540198 -.01912937499997725 18 49 107 0 51 46 52 47 ?1 29 50 106 0 52 53
 47 .558291621145117 -.02980592575396625 -.008959375 18 52 104 0 54 49 55 50 ?1
 29 53 103 0 55 56 50 .558291621145117 -.03260592575400235 -.0089593750000176 18
 55 101 0 21 52 57 53 ?1 29 56 100 0 57 58 53 .558291621145117 -.008176405578597
53 -.0350043750000282 18 57 98 0 59 55 60 56 ?1 29 58 97 0 60 61 56 .55829162114
5117 -.00817640557859753 .002089492134161155 18 60 95 0 62 57 63 58 ?1 29 61 94
 0 63 64 58 .558291621145117 -.00788743468874282 .003128731102264935 18 63 92 0
 65 60 66 61 ?1 29 64 91 0 66 67 61 .558291621145117 -.00578936466617414 .007825
80146812401 18 66 89 0 68 63 69 64 ?1 29 67 88 0 69 70 64 .558291621145117 -.001
444049960226032 .01055687500002022 18 69 86 0 71 66 72 67 ?1 29 70 85 0 72 73 67
 .558291621145117 -3469446951953615e-33 .01055687500002022 18 72 83 0 74 69 75 7
0 ?1 29 73 82 0 75 76 70 .558291621145117 -3469446951953615e-33 .012668249999990
16 18 75 80 0 77 72 78 73 ?1 29 76 79 0 78 79 73 .558291621145117 -.038487110904
786 .01266824999999016 18 78 77 0 80 75 81 76 ?1 29 79 76 0 81 82 76 .5582916211
45117 -.0384871109047607 -.00999124999998457 18 81 74 0 83 78 84 79 ?1 29 82 73
 0 84 85 79 .558291621145117 -.03568711090478145 -.00999124999998457 18 84 71 0
 86 81 87 82 ?1 29 85 70 0 87 88 82 .558291621145117 -.0227231109047706 -.022955
24999999545 18 87 68 0 89 84 90 85 ?1 29 88 67 0 90 91 85 .558291621145117 -.022
7231109047706 -.04200524999998835 18 90 65 0 92 87 93 88 ?1 29 91 64 0 93 94 88
 .558291621145144 -3469446951953615e-33 -.04200524999998835 18 93 62 0 95 90 96
 91 ?1 29 94 61 0 96 0 91 .558291621145117 -3469446951953615e-33 -.0350043750000
282 18 96 59 0 97 93 0 94 ?1 17 97 0 98 95 99 96 59 100 0 101 -15 255 98 5 0 97
 12 26 17 95 0 98 92 97 93 101 102 0 103 +17 99 0 98 97 62 57 104 105 0 0 +17 59
 0 0 0 0 57 97 100 0 99 +16 100 7 0 ?59 102 0 106 107 107 1 17 101 0 0 0 0 96 95
 102 0 0 -16 102 9 0 ?95 108 100 109 110 110 1 16 108 11 0 ?103 111 102 112 0 0
 1 30 109 10 0 102 106 112 0 +.558291621145144 -3469446951953615e-33 291.55 -951
863412426573e-31 0 -1 16 110 23 0 ?74 113 114 109 102 102 1 17 74 0 98 71 77 72
 115 110 0 116 +16 113 24 0 ?116 117 110 118 0 0 1 16 114 21 0 ?77 110 119 120 0
 0 1 17 77 0 98 74 80 75 121 114 0 115 +16 119 19 0 ?80 114 122 123 0 0 1 30 120
 22 0 114 123 118 0 +.558291621145117 -.0986777071137764 .01266824999999016 0 1
 0 30 123 20 0 119 124 120 0 +.558291621145144 -.038487110904786 291.55 95186341
2426573e-31 0 1 30 118 25 0 113 120 125 0 +.558291621145117 -.0986777071137764 .
01055687500002022 0 1 0 38 255 125 27 0 117 118 126 0 +127 128 129 130 130 16 11
7 26 0 ?68 131 113 125 0 0 1 38 126 30 0 131 125 132 0 +127 13 133 134 135 50 25
5 127 2 0 12 0 128 136 +.558291621145144 -.0986777071137764 291.55 1 0 -95186341
2426573e-31 -951863412426573e-31 0 -1 54 128 28 0 1 127 13 137 +.55377848204992
 -.010676550753989 .00678656250002023 0 0 -1 .01027655075399452 .0037703125 -1 0
 0 40 255 20 129 0 1 20 .00031436275678999 .375497898176653 ??.558291621145117 -
.00561313979642766 .00820397362914765 .558291621145117 -.00594483816525069 .0072
8194459194753 .558291621145117 -.00594599465858455 .00629753560283742 .558291621
145117 -.00564406665032581 .00542736377077353 .558291621145117 -.004852210025155
85 .00438715710899862 .558291621145117 -.00349254953126961 .003469632137648205 .
558291621145117 -.00189927000808992 .003038276140608435 .558291621145117 -.00022
8509301663087 .00318168064246455 .558291621145117 .00114667598259194 .0038613761
8484384 .558291621145117 .002079664989773355 .00488302505383142 .558291621145117
 .002553236172296485 .00607132603674679 .558291621145117 .00258967890853509 .007
29151330192499 .558291621145117 .002224397862955505 .00843463353414565 .55829162
1145117 .00150117154382516 .00940726057580336 .558291621145117 .0004721596746122
34 .0101256083903713 .558291621145117 -.000800005540365982 .01051163790908488 .5
58291621145117 -.0022364865205317 .0104902614289296 .558291621145117 -.003725263
334218 .0099897504308589 .558291621145117 -.0050677811884768 .00896473060464254
 .558291621145117 -.00561313979642761 .00820397362914761 41 255 1 130 H.55829162
1145117 -.00561313979642761 .00820397362914761 52 255 13 31 0 1 128 5 138 -.5537
7848204992 -.010676550753989 .002619375 0 0 1 .005159375 .275637355817 .96126169
5938319 1 0 0 141 255 137 125 137 137 128 141 138 126 138 138 13 14 255 12 1 139
 ?0 0 98 4 127 -0 0 0 0 4 141 136 125 140 141 127 141 140 132 141 136 127 141 14
1 126 136 140 127 38 132 33 0 142 126 143 0 +127 5 144 145 145 16 142 32 0 ?62 1
05 131 132 0 0 1 30 143 36 0 105 132 146 0 -.558291621145117 -.00817640557859753
 -.13229166666667 0 0 1 40 21 144 0 1 21 .000415521853164371 .3821904883707575 ?
?.558291621145117 -.0079339961134921 .001139189682935676 .558291621145117 -.0069
9765222481348 -462253783693483e-19 .558291621145117 -.00520907700344707 -.001201
27429796788 .558291621145117 -.00312184418677144 -.00167859321440864 .5582916211
45117 -.00156465467714227 -.00147154761530808 .558291621145117 -.000171900074517
8595 -.000729746929526825 .558291621145117 .000732141919416311 .0003388630024514
465 .558291621145117 .001150976349419394 .001537252672865915 .558291621145117 .0
01133803028458828 .00274093956896292 .558291621145117 .000725033804282116 .00385
267102607901 .558291621145117 -3132322817182505e-20 .00478838741635087 .55829162
1145117 -.001088769453203862 .00547116455502893 .558291621145117 -.0023970073164
16355 .00582650199289449 .558291621145117 -.003900843513011355 .0057764278487669
2 .558291621145117 -.00553459843639054 .00522881250173581 .558291621145117 -.007
17362173691494 .004056341703009885 .558291621145117 -.00779998916269831 .0032789
5628364701 .558291621145117 -.0081227409344805 .00253334867110316 .5582916211451
17 -.00816668510654156 .001900945841078025 .558291621145117 -.00800365159067864
 .001289308487143188 .558291621145117 -.00793399611349166 .001139189682935864 41
 1 145 H.558291621145117 -.00793399611349166 .001139189682935864 16 105 35 0 ?99
 22 142 143 0 0 1 30 146 38 0 22 143 147 0 +.558291621145144 -.032605925753989 2
91.55 951863412426573e-31 0 1 16 22 37 0 ?19 148 105 146 0 0 1 30 147 40 0 148 1
46 149 0 +.558291621145117 -.0986777071135958 -.00895937500001764 58972135980706
1e-46 1 619544098563145e-30 16 148 39 0 ?54 150 22 147 0 0 1 31 255 149 42 0 150
 147 151 0 +.558291621145117 -.029805925753989 -.019129375 1 0 -951863412426573e
-31 -951863412426573e-31 0 -1 .01017 16 150 41 0 ?152 153 148 149 0 0 1 30 151 4
4 0 153 149 154 0 +.558291621145144 -.01963592575405165 291.55 -951863412426573e
-31 1092739197465706e-31 -1 16 153 43 0 ?48 155 150 151 156 156 1 30 154 46 0 15
5 151 157 0 -.558291621145117 -.01933592575404165 -.0219136384495561 0 -1 0 16 1
55 45 0 ?45 158 153 154 0 0 1 30 157 48 0 158 154 159 0 +.558291621145144 -.0190
359257540269 291.55 -951863412426573e-31 244052261673721e-31 -1 16 158 47 0 ?42
 160 155 157 0 0 1 30 159 50 0 160 157 161 0 +.558291621145117 -.019335925754041
65 -.0246327517380598 0 -1 0 16 160 49 0 ?39 156 158 159 0 0 1 30 161 54 0 162 1
59 15 0 +.558291621145117 -.01317669592938048 -.13229166666667 0 0 1 16 162 53 0
 ?27 18 107 161 0 0 1 31 15 56 0 18 161 6 0 +.558291621145117 -.029805925753989
 -.019129375 -1 0 951863412426573e-31 951863412426573e-31 0 1 .0166292298246085
 16 18 55 0 ?28 9 162 15 0 0 1 17 28 0 0 0 0 25 24 18 0 0 +17 27 0 26 24 33 25 1
63 162 0 28 +16 107 52 0 ?164 162 156 106 100 100 1 17 164 0 0 0 0 34 33 107 0 0
 +16 156 51 0 ?36 107 160 151 153 153 1 30 106 8 0 100 0 109 0 +.558291621145117
 -.0986777071137764 -.0350043750000282 0 -1 0 17 36 0 26 33 39 34 165 156 0 164
 +15 26 6 0 21 12 0 17 33 0 26 27 36 29 164 107 0 163 -17 39 0 26 36 42 37 166 1
60 0 165 +17 165 0 0 0 0 37 36 156 0 0 -17 42 0 26 39 45 40 167 158 0 166 +17 16
6 0 0 0 0 40 39 160 0 0 -17 45 0 26 42 48 43 168 155 0 167 +17 167 0 0 0 0 43 42
 158 0 0 -17 48 0 26 45 51 46 169 153 0 168 +17 168 0 0 0 0 46 45 155 0 0 -17 51
 0 26 48 54 49 152 150 0 169 -17 169 0 0 0 0 49 48 153 0 0 -17 54 0 26 51 21 52
 170 148 0 152 +17 152 0 0 0 0 52 51 150 0 0 +17 21 0 26 54 23 55 19 22 0 170 -1
7 170 0 0 0 0 55 54 148 0 0 -17 23 0 26 21 24 10 17 9 0 0 -17 17 0 0 0 0 20 23 9
 0 0 +17 163 0 0 0 0 29 27 162 0 0 -17 62 0 98 99 65 60 171 142 0 104 +16 131 29
 0 ?65 142 117 126 0 0 1 17 65 0 98 62 68 63 172 131 0 171 +17 68 0 98 65 71 66
 173 117 0 172 +17 172 0 0 0 0 66 65 131 0 0 -17 171 0 0 0 0 63 62 142 0 0 -17 7
1 0 98 68 74 69 116 113 0 173 -17 173 0 0 0 0 69 68 117 0 0 -17 116 0 0 0 0 72 7
1 113 0 0 +17 104 0 0 0 0 60 99 105 0 0 -81 255 1 139 146 174 12 0 0 0 0 175 80
 255 1 174 176 177 9000 1 1 1 1 1 1 1 1 0 FFFFTFTFFFFFFF1 82 255 1 175 -20334923
3 79 255 14 177 SWEntUnchanged40 10 133 0 1 10 .001142217386493154 .338061653040
267 ??.558291621145117 -.00400654895231941 .01271206058091498 .558291621145117 -
.00785143914863553 .003195031209461385 .558291621145117 -.00931077815406904 .001
07059241311567 .558291621145117 -.00988945286018212 .000603250073297245 .5582916
21145117 -.01037597842347296 .000400549369639971 .558291621145117 -.010819992770
0344 .0003736302075290915 .558291621145117 -.01124825082267534 .0004914590716471
28 .558291621145117 -.01184654882885892 .000885972698387307 .558291621145117 -.0
1305606256650642 .00241931773369641 .558291621145117 -.01556280986677995 .007823
42659675693 41 1 134 L.558291621145117 -.00400654895231941 .01271206058091498 41
 1 135 L.558291621145117 -.01556280986677995 .00782342659675693 30 124 18 0 122
 178 123 0 +.558291621145117 -291.562731860905 -.00999124999998457 0 1 0 16 122
 17 0 ?179 119 180 124 0 0 1 31 178 16 0 180 181 124 0 +.558291621145117 -.03568
7110904786 -.02295525 1 0 0 0 0 -1 .012964 16 180 15 0 ?86 122 111 178 0 0 1 30
 181 14 0 111 112 178 0 +.558291621145117 -.0227231109047706 4e2 0 0 -1 16 111 1
3 0 ?182 180 108 181 0 0 1 30 112 12 0 108 109 181 0 +.558291621145144 -.0986777
071137764 -.04200524999998835 0 1 0 17 182 0 0 0 0 90 89 111 0 0 +17 89 0 98 86
 92 87 182 111 0 183 -17 86 0 98 83 89 84 183 180 0 179 +17 92 0 98 89 95 90 103
 108 0 182 -17 183 0 0 0 0 87 86 180 0 0 -17 103 0 0 0 0 93 92 108 0 0 +17 83 0
 98 80 86 81 179 122 0 184 -17 179 0 0 0 0 84 83 122 0 0 +17 80 0 98 77 83 78 18
4 119 0 121 +17 184 0 0 0 0 81 80 119 0 0 -17 121 0 0 0 0 78 77 114 0 0 -17 115
 0 0 0 0 75 74 110 0 0 -141 14 132 14 14 5 74 4 CI16 index_map_offset0 0 1 dCCZ2
0 11 1 0 0 139 0 0 0 0 0 0 0 0 0 0 0 0 0 0 0 0 0 0 0 1 0 
